<svg width="32" height="32" xmlns="http://www.w3.org/2000/svg" xmlns:svg="http://www.w3.org/2000/svg">
 <!-- Created with SVG-edit - http://svg-edit.googlecode.com/ -->
 <g>
  <title>Head</title>
  <line id="head_top" fill="none" stroke="#000000" y2="0.25" x2="8" y1="0.25" x1="24" stroke-width="0.5"/>
  <line id="head_left" stroke="black" y2="11" x2="8.25" y1="0.5" x1="8.25" stroke-width="0.5"/>
  <line id="head_right" stroke="black" y2="11" x2="23.75" y1="0.5" x1="23.75" stroke-width="0.5"/>
  <line id="head_buttom" stroke="black" y2="11.25" x2="8" y1="11.25" x1="24" stroke-width="0.5"/>
 </g>
 <g>
  <title>Neck</title>
  <line id="neck" stroke="black" y2="11.75" x2="12.5" y1="11.75" x1="19.5" stroke-width="0.5"/>
 </g>
 <g>
  <title>Body</title>
  <line id="body_top" stroke="black" y2="12.25" x2="23" y1="12.25" x1="9" stroke-width="0.5"/>
  <line id="body_left" stroke="black" y2="25" x2="9.25" y1="12.5" x1="9.25" stroke-width="0.5"/>
  <line id="body_right" stroke="black" y2="25" x2="22.75" y1="12.5" x1="22.75" stroke-width="0.5"/>
  <line id="body_bottom_left" stroke="black" y2="24.75" x2="12.5" y1="24.75" x1="9" stroke-width="0.5"/>
  <line id="body_bottom_right" stroke="black" y2="24.75" x2="23" y1="24.75" x1="19.5" stroke-width="0.5"/>
 </g>
 <g>
  <title>Feet</title>
  <line id="feet_left" stroke="black" y2="32" x2="12.25" y1="25" x1="12.25" stroke-width="0.5"/>
  <line id="feet_right" stroke="black" y2="32" x2="19.75" y1="25" x1="19.75" stroke-width="0.5"/>
  <line id="feet_bottom" stroke="black" y2="31.75" x2="12.5" y1="31.75" x1="19.5" stroke-width="0.5"/>
 </g>
 <g>
  <title>Arm_Left</title>
  <line id="arm_left_top" stroke="black" y2="15.75" x2="9" y1="15.75" x1="0" stroke-width="0.5"/>
  <line id="arm_left_middle" stroke="black" y2="19.75" x2="0.25" y1="15.5" x1="0.25" stroke-width="0.5"/>
  <line id="arm_left_bottom" stroke="black" y2="19.75" x2="9" y1="19.75" x1="0" stroke-width="0.5"/>
 </g>
 <g>
  <title>Arm_Right</title>
  <line id="arm_right_top" stroke="black" y2="15.75" x2="32" y1="15.75" x1="23" stroke-width="0.5"/>
  <line id="arm_right_middle" stroke="black" y2="19.75" x2="31.75" y1="15.5" x1="31.75" stroke-width="0.5"/>
  <line id="arm_right_bottom" stroke="black" y2="19.75" x2="32" y1="19.75" x1="23" stroke-width="0.5"/>
 </g>
</svg>
